<svg width="23" height="24" viewBox="0 0 23 24" fill="none" xmlns="http://www.w3.org/2000/svg">
<path d="M3.35815 6.08061C5.02727 6.08061 6.38035 4.71942 6.38035 3.04031C6.38035 1.36119 5.02727 0 3.35815 0C1.68903 0 0.335938 1.36119 0.335938 3.04031C0.335938 4.71942 1.68903 6.08061 3.35815 6.08061Z" fill="url(#paint0_linear_4470_4137)"/>
<path d="M5.66186 8.10547H1.05019C0.93294 8.10547 0.837891 8.20109 0.837891 8.31904V23.0912C0.837891 23.2091 0.93294 23.3048 1.05019 23.3048H5.66186C5.77911 23.3048 5.87416 23.2091 5.87416 23.0912V8.31904C5.87416 8.20109 5.77911 8.10547 5.66186 8.10547Z" fill="url(#paint1_linear_4470_4137)"/>
<path d="M23.0006 13.6791V22.2924C23.0006 22.8492 22.5471 23.3054 21.9935 23.3054H18.9713C18.4178 23.3054 17.9643 22.8492 17.9643 22.2924V15.1998C17.9643 13.801 16.8361 12.666 15.4456 12.666C14.0551 12.666 12.9269 13.801 12.9269 15.1998V22.2924C12.9269 22.8492 12.4734 23.3054 11.9199 23.3054H8.89766C8.34412 23.3054 7.89062 22.8492 7.89062 22.2924V9.1192C7.89062 8.56235 8.34412 8.10614 8.89766 8.10614H11.9199C12.4734 8.10614 12.9269 8.56235 12.9269 9.1192V9.76774C13.9339 8.45501 15.6012 7.59961 17.4597 7.59961C20.2396 7.59961 22.9994 9.62573 22.9994 13.6791H23.0006Z" fill="url(#paint2_linear_4470_4137)"/>
<defs>
<linearGradient id="paint0_linear_4470_4137" x1="3.35815" y1="0" x2="3.35815" y2="6.08061" gradientUnits="userSpaceOnUse">
<stop stop-color="white"/>
<stop offset="1" stop-color="#767676"/>
</linearGradient>
<linearGradient id="paint1_linear_4470_4137" x1="3.35603" y1="8.10547" x2="3.35603" y2="23.3048" gradientUnits="userSpaceOnUse">
<stop stop-color="white"/>
<stop offset="1" stop-color="#767676"/>
</linearGradient>
<linearGradient id="paint2_linear_4470_4137" x1="15.4456" y1="7.59961" x2="15.4456" y2="23.3054" gradientUnits="userSpaceOnUse">
<stop stop-color="white"/>
<stop offset="1" stop-color="#767676"/>
</linearGradient>
</defs>
</svg>
