<svg width="24" height="23" viewBox="0 0 24 23" fill="none" xmlns="http://www.w3.org/2000/svg">
<path d="M22.9962 0.451326C22.689 0.473346 22.3985 0.562475 22.1154 0.680963C21.1727 1.07523 20.2301 1.46739 19.2874 1.8606C16.6869 2.94378 14.0854 4.02695 11.4839 5.10908C8.06455 6.53199 4.64517 7.9528 1.22578 9.37571C0.917499 9.50363 0.601879 9.61898 0.34498 9.84442C0.153091 10.0122 0.01468 10.2104 0 10.4631C0.00314571 10.504 0.00209733 10.5333 0.00838875 10.5616C0.0178259 10.6088 0.02936 10.6571 0.0450886 10.7021C0.206568 11.1488 0.556791 11.3942 0.978316 11.5546C1.34007 11.693 1.70707 11.8168 2.07197 11.9478C3.41205 12.427 4.75212 12.9062 6.09219 13.3833C6.18237 13.4148 6.2348 13.4609 6.26311 13.5574C6.84926 15.5948 7.43646 17.6311 8.02785 19.6664C8.14949 20.0837 8.25435 20.5094 8.47245 20.8922C8.69265 21.277 9.05126 21.3273 9.37212 21.018C10.4532 19.9768 11.5332 18.9345 12.6091 17.887C12.7087 17.7894 12.7695 17.7936 12.8712 17.8775C13.4416 18.3494 14.0173 18.816 14.5919 19.2836C15.7149 20.198 16.8369 21.1124 17.9599 22.0257C18.2252 22.2417 18.544 22.3172 18.8722 22.3025C19.4877 22.2742 20.0078 21.7971 20.12 21.192C20.3202 20.1131 20.5184 19.033 20.7197 17.953C21.028 16.2984 21.3384 14.6437 21.6477 12.9891C22.0357 10.9108 22.4247 8.8336 22.8127 6.75533C23.1503 4.95284 23.4922 3.15244 23.8225 1.3489C23.9284 0.77114 23.5802 0.411481 22.9951 0.452375L22.9962 0.451326ZM21.4055 3.29819C21.2923 3.91161 21.1811 4.52607 21.0658 5.13948C20.6904 7.15064 20.314 9.1618 19.9375 11.173C19.6125 12.9083 19.2864 14.6437 18.9613 16.3791C18.7621 17.4445 18.5649 18.5098 18.3668 19.5752C18.3416 19.7104 18.3227 19.7178 18.2032 19.6213C17.0906 18.7185 15.9781 17.8136 14.8656 16.9107C14.1515 16.3309 13.4353 15.7531 12.7244 15.1691C12.6342 15.0946 12.586 15.1061 12.5084 15.1816C12.003 15.6766 11.4934 16.1662 10.9848 16.657C10.9565 16.6842 10.9303 16.744 10.8821 16.7157C10.837 16.6895 10.8737 16.636 10.8779 16.5951C10.9481 15.9219 11.0184 15.2488 11.0907 14.5756C11.1379 14.1331 11.1882 13.6916 11.2354 13.2491C11.2459 13.1506 11.3204 13.1002 11.3822 13.0415C12.3343 12.1376 13.2875 11.2359 14.2396 10.3331C15.6059 9.03702 16.9722 7.73994 18.3395 6.44391C18.4727 6.31703 18.609 6.1933 18.7421 6.06642C18.7747 6.03496 18.8239 6.01084 18.8082 5.9301C18.7096 5.99197 18.6195 6.05174 18.5272 6.10627C17.2416 6.87067 15.955 7.63508 14.6684 8.39949C12.6741 9.58437 10.6797 10.7672 8.68741 11.9541C8.53012 12.0475 8.398 12.0726 8.21555 12.0066C6.82829 11.5022 5.43579 11.0115 4.04538 10.5155C4.00659 10.5019 3.9594 10.4977 3.92375 10.4369C4.43965 10.2219 4.94401 10.0111 5.44837 9.80143C8.45567 8.54943 11.464 7.29744 14.4713 6.04545C16.6796 5.1269 18.8879 4.2094 21.0951 3.29085C21.1622 3.26254 21.2283 3.23213 21.2954 3.20592C21.329 3.19334 21.3667 3.15664 21.4013 3.18809C21.4338 3.2185 21.4108 3.26149 21.4034 3.29819H21.4055Z" fill="url(#paint0_linear_4470_4141)"/>
<defs>
<linearGradient id="paint0_linear_4470_4141" x1="11.9207" y1="0.449219" x2="11.9207" y2="22.3042" gradientUnits="userSpaceOnUse">
<stop stop-color="white"/>
<stop offset="1" stop-color="#767676"/>
</linearGradient>
</defs>
</svg>
